<svg width="400" height="400" viewBox="0 0 400 400" fill="none" xmlns="http://www.w3.org/2000/svg">
    <rect width="400" height="400" fill="#F3F4F6"/>
    <path d="M200 150C211.046 150 220 141.046 220 130C220 118.954 211.046 110 200 110C188.954 110 180 118.954 180 130C180 141.046 188.954 150 200 150Z" fill="#D1D5DB"/>
    <path d="M200 170C160 170 130 190 130 220V240C130 245.523 134.477 250 140 250H260C265.523 250 270 245.523 270 240V220C270 190 240 170 200 170Z" fill="#D1D5DB"/>
    <text x="50%" y="80%" dominant-baseline="middle" text-anchor="middle" font-family="Arial" font-size="20" fill="#9CA3AF">أناقة فاشن</text>
</svg>
